<?xml version="1.0" encoding="utf-8"?>
<!-- Generator: Adobe Illustrator 16.0.3, SVG Export Plug-In . SVG Version: 6.00 Build 0)  -->
<!DOCTYPE svg PUBLIC "-//W3C//DTD SVG 1.1//EN" "http://www.w3.org/Graphics/SVG/1.1/DTD/svg11.dtd">
<svg version="1.1" id="Layer_1" xmlns="http://www.w3.org/2000/svg" xmlns:xlink="http://www.w3.org/1999/xlink" x="0px" y="0px"
	 width="160px" height="60px" viewBox="0 0 160 60" enable-background="new 0 0 160 60" xml:space="preserve">
<g>
	<defs>
		<rect id="SVGID_1_" x="0.128" y="0.97" width="159.872" height="58.105"/>
	</defs>
	<clipPath id="SVGID_2_">
		<use xlink:href="#SVGID_1_"  overflow="visible"/>
	</clipPath>
	<path clip-path="url(#SVGID_2_)" d="M102.684,29.578c0.057,2.371,0.672,4.11,1.843,5.21c1.172,1.102,2.902,1.651,5.189,1.651
		c1.946,0,3.799-0.334,5.561-0.998v3.649c-0.662,0.22-1.365,0.395-2.108,0.527c-1.114,0.196-2.351,0.296-3.704,0.296
		c-1.978,0-3.674-0.275-5.085-0.827c-1.413-0.55-2.578-1.328-3.495-2.329c-0.918-1.003-1.59-2.189-2.011-3.559
		c-0.426-1.37-0.638-2.874-0.638-4.512c0-1.609,0.207-3.113,0.616-4.511c0.409-1.399,1.036-2.612,1.885-3.643
		c0.847-1.031,1.912-1.851,3.197-2.458c1.285-0.608,2.804-0.911,4.556-0.911c1.496,0,2.81,0.254,3.938,0.762
		c1.131,0.51,2.077,1.208,2.838,2.098c0.763,0.89,1.345,1.949,1.736,3.178c0.397,1.228,0.597,2.563,0.597,4.004
		c0,0.394-0.016,0.811-0.044,1.249c-0.028,0.438-0.057,0.812-0.085,1.123H102.684z M113.445,26.442c0-0.79-0.106-1.545-0.318-2.266
		c-0.213-0.721-0.524-1.348-0.932-1.885c-0.409-0.537-0.932-0.967-1.567-1.292c-0.636-0.325-1.392-0.486-2.267-0.486
		c-1.722,0-3.043,0.521-3.962,1.567c-0.917,1.045-1.474,2.5-1.673,4.363H113.445z"/>
	<path clip-path="url(#SVGID_2_)" d="M72.848,8.947c0.96-0.114,2.119-0.22,3.475-0.319c1.354-0.099,2.681-0.147,3.981-0.147
		c5.339,0,9.328,1.355,11.969,4.066c2.638,2.712,3.96,6.609,3.96,11.693c0,5.309-1.348,9.247-4.047,11.818
		c-2.697,2.57-6.713,3.855-12.051,3.855c-1.328,0-2.64-0.05-3.94-0.147c-1.298-0.101-2.415-0.22-3.346-0.362V8.947z M77.169,35.848
		c0.396,0.056,0.881,0.105,1.461,0.146c0.581,0.044,1.194,0.064,1.843,0.064c1.667,0,3.186-0.189,4.553-0.571
		c1.371-0.382,2.551-1.023,3.538-1.928c0.988-0.903,1.752-2.125,2.288-3.665c0.537-1.54,0.805-3.466,0.805-5.783
		c0-2.117-0.268-3.925-0.805-5.421c-0.536-1.498-1.292-2.719-2.267-3.664c-0.975-0.946-2.14-1.631-3.496-2.055
		c-1.355-0.424-2.852-0.636-4.489-0.636c-0.538,0-1.122,0.008-1.759,0.021c-0.635,0.014-1.193,0.063-1.672,0.148V35.848z"/>
	<path clip-path="url(#SVGID_2_)" d="M155.661,29.196c-0.424-0.057-0.961-0.114-1.609-0.169c-0.649-0.058-1.201-0.086-1.654-0.086
		c-1.75,0-3.084,0.325-4.001,0.976c-0.919,0.649-1.377,1.637-1.377,2.964c0,0.849,0.154,1.512,0.466,1.992
		c0.311,0.48,0.698,0.847,1.164,1.101c0.467,0.254,0.982,0.409,1.547,0.466c0.564,0.058,1.102,0.086,1.61,0.086
		c0.648,0,1.32-0.036,2.013-0.105c0.69-0.071,1.305-0.178,1.842-0.319V29.196z M155.661,25.892c-0.02-1.127,0.234-2.726-0.295-3.625
		c-0.197-0.339-0.475-0.617-0.824-0.82c-0.629-0.364-2.117-0.405-3.162-0.434c-0.243-0.008-5.869,0-6.05-0.011v-3.497
		c0.165,0,5.737,0.011,5.931,0.009c1.474-0.021,3.679-0.047,5.317,0.812c1.003,0.528,1.781,1.253,2.341,2.181
		c0.56,0.93,0.853,1.997,0.854,3.213l-0.002,15.136c-0.989,0.227-2.189,0.458-3.602,0.699c-1.411,0.241-2.852,0.359-4.32,0.359
		c-1.385,0-2.635-0.127-3.749-0.381c-1.115-0.253-2.063-0.663-2.839-1.229c-0.777-0.563-1.377-1.284-1.802-2.16
		c-0.422-0.876-0.635-1.935-0.635-3.177c0-1.216,0.247-2.281,0.743-3.199c0.491-0.917,1.164-1.681,2.011-2.288
		c0.85-0.608,1.822-1.059,2.924-1.356c1.1-0.296,2.259-0.445,3.474-0.445c0.903,0,1.645,0.021,2.223,0.063
		C154.778,25.786,155.266,25.836,155.661,25.892"/>
	<path clip-path="url(#SVGID_2_)" d="M132.895,39.479h4.064l0.016-16.072c0-0.417,0.107-0.797,0.313-1.141
		c0.196-0.339,0.473-0.617,0.823-0.821c0.629-0.364,2.115-0.403,3.162-0.435c0.473-0.015,0.912-0.016,1.314-0.011V17.51
		l-1.193,0.003c-1.475,0.002-3.683-0.048-5.319,0.811c-1.004,0.529-1.783,1.253-2.341,2.182c-0.561,0.929-0.857,1.998-0.857,3.212
		L132.895,39.479z"/>
	<path clip-path="url(#SVGID_2_)" d="M132.5,11.729V8.236c-2.417-0.172-5.168-0.5-7.386,0.664c-1.004,0.528-1.784,1.251-2.34,2.182
		c-0.563,0.928-0.854,1.998-0.855,3.212c-0.001,0.934-0.004,2.021-0.008,3.215h-3.185v3.372h3.178
		c-0.013,5.423-0.029,12.234-0.029,18.606h4.063c0-7.955,0.029-13.854,0.055-18.606h5.346v-3.372h-5.331
		c0.004-1.247,0.008-2.416,0.01-3.524c0-0.418,0.106-0.798,0.31-1.142c0.197-0.338,0.474-0.614,0.825-0.821
		C128.389,11.312,131.454,11.618,132.5,11.729"/>
	<path clip-path="url(#SVGID_2_)" fill="#808285" d="M159.269,48.256c0-0.228-0.03-0.454-0.09-0.674
		c-0.058-0.221-0.152-0.416-0.275-0.583c-0.126-0.166-0.289-0.302-0.487-0.403c-0.199-0.104-0.439-0.155-0.723-0.155
		c-0.516,0-0.918,0.158-1.206,0.476c-0.288,0.318-0.463,0.766-0.521,1.34H159.269z M155.943,48.866c0,0.755,0.173,1.308,0.521,1.662
		c0.35,0.355,0.869,0.53,1.563,0.53c0.281,0,0.543-0.021,0.781-0.07c0.241-0.048,0.475-0.111,0.704-0.193
		c0.038,0.082,0.066,0.179,0.088,0.299c0.021,0.118,0.038,0.226,0.044,0.32c-0.214,0.098-0.466,0.17-0.753,0.224
		c-0.288,0.051-0.603,0.076-0.942,0.076c-0.487,0-0.907-0.071-1.257-0.216c-0.351-0.144-0.639-0.346-0.864-0.604
		c-0.227-0.259-0.392-0.565-0.499-0.926c-0.108-0.357-0.16-0.751-0.16-1.18c0-0.414,0.049-0.801,0.149-1.164
		c0.099-0.362,0.25-0.679,0.454-0.953c0.202-0.273,0.464-0.487,0.782-0.642c0.316-0.154,0.698-0.233,1.139-0.233
		c0.371,0,0.7,0.063,0.987,0.188c0.288,0.126,0.531,0.301,0.726,0.527c0.196,0.226,0.344,0.495,0.445,0.809
		c0.098,0.313,0.148,0.656,0.148,1.025c0,0.067-0.003,0.152-0.006,0.257c-0.003,0.102-0.009,0.19-0.016,0.264H155.943z
		 M146.724,45.93c0.045-0.007,0.104-0.013,0.171-0.017c0.072-0.003,0.144-0.007,0.217-0.007c0.062,0,0.132,0.004,0.215,0.007
		c0.085,0.004,0.151,0.01,0.196,0.017l1.252,4.811l1.396-4.811c0.057-0.007,0.123-0.013,0.193-0.017
		c0.07-0.003,0.147-0.007,0.228-0.007h0.184c0.063,0,0.123,0.009,0.184,0.023l1.395,4.742l1.254-4.742
		c0.043-0.007,0.096-0.013,0.16-0.017c0.063-0.003,0.121-0.007,0.182-0.007c0.059,0,0.125,0.004,0.2,0.007
		c0.073,0.004,0.132,0.01,0.177,0.017l-1.629,5.651c-0.134,0.022-0.262,0.033-0.389,0.033c-0.14,0-0.268-0.011-0.388-0.033
		l-1.362-4.675l-1.43,4.675c-0.132,0.022-0.262,0.033-0.388,0.033c-0.141,0-0.27-0.011-0.387-0.033L146.724,45.93z M143.346,51.714
		c-0.424,0-0.789-0.075-1.108-0.227c-0.319-0.15-0.582-0.36-0.793-0.626c-0.21-0.267-0.367-0.58-0.471-0.943
		c-0.104-0.361-0.155-0.749-0.155-1.162c0-0.414,0.052-0.803,0.155-1.164c0.104-0.362,0.261-0.676,0.471-0.941
		c0.211-0.266,0.474-0.475,0.793-0.627c0.319-0.149,0.685-0.227,1.108-0.227c0.42,0,0.789,0.077,1.103,0.227
		c0.313,0.152,0.575,0.361,0.785,0.627c0.212,0.266,0.371,0.579,0.479,0.941c0.105,0.361,0.159,0.75,0.159,1.164
		c0,0.413-0.054,0.801-0.159,1.162c-0.107,0.363-0.267,0.677-0.479,0.943c-0.21,0.266-0.472,0.476-0.785,0.626
		C144.135,51.639,143.766,51.714,143.346,51.714 M143.346,51.072c0.589,0,1.031-0.207,1.322-0.621
		c0.293-0.414,0.438-0.979,0.438-1.695c0-0.718-0.146-1.282-0.438-1.696c-0.291-0.414-0.733-0.619-1.322-0.619
		c-0.593,0-1.032,0.205-1.325,0.619c-0.294,0.414-0.438,0.979-0.438,1.696c0,0.716,0.145,1.281,0.438,1.695
		C142.313,50.865,142.753,51.072,143.346,51.072 M136.996,48.668l2.026-2.738c0.12-0.023,0.247-0.034,0.389-0.034
		c0.162,0,0.318,0.011,0.465,0.034l-2.016,2.659l2.382,2.992c-0.133,0.022-0.266,0.033-0.399,0.033c-0.163,0-0.32-0.011-0.477-0.033
		L136.996,48.668z M135.8,43.438c0.043-0.009,0.104-0.014,0.182-0.017c0.078-0.005,0.14-0.007,0.182-0.007
		c0.037,0,0.096,0.002,0.178,0.007c0.081,0.003,0.146,0.008,0.189,0.017v8.144c-0.044,0.008-0.108,0.014-0.189,0.017
		c-0.082,0.005-0.141,0.006-0.178,0.006c-0.042,0-0.104-0.001-0.182-0.006c-0.077-0.003-0.139-0.009-0.182-0.017V43.438z
		 M129.459,45.93c0.06-0.007,0.118-0.013,0.172-0.017c0.056-0.003,0.109-0.007,0.162-0.007c0.059,0,0.114,0.004,0.166,0.007
		c0.05,0.004,0.106,0.01,0.166,0.017c0.016,0.133,0.025,0.299,0.033,0.499c0.008,0.199,0.011,0.372,0.011,0.521
		c0.073-0.133,0.17-0.267,0.287-0.405c0.12-0.136,0.257-0.26,0.416-0.37c0.158-0.111,0.342-0.202,0.549-0.272
		c0.207-0.069,0.432-0.104,0.676-0.104c0.651,0,1.124,0.193,1.418,0.583c0.297,0.388,0.445,0.932,0.445,1.634v3.567
		c-0.045,0.008-0.106,0.014-0.184,0.017c-0.078,0.005-0.139,0.006-0.184,0.006c-0.035,0-0.096-0.001-0.177-0.006
		c-0.082-0.003-0.146-0.009-0.188-0.017v-3.345c0-0.629-0.1-1.08-0.296-1.354c-0.193-0.271-0.488-0.409-0.88-0.409
		c-0.259,0-0.502,0.053-0.73,0.155c-0.23,0.104-0.426,0.253-0.592,0.449c-0.167,0.193-0.299,0.438-0.394,0.725
		c-0.097,0.289-0.146,0.616-0.146,0.987v2.792c-0.044,0.008-0.106,0.014-0.184,0.017c-0.077,0.005-0.138,0.006-0.183,0.006
		c-0.037,0-0.096-0.001-0.175-0.006c-0.082-0.003-0.146-0.009-0.191-0.017V45.93z M127.121,48.256c0-0.228-0.029-0.454-0.09-0.674
		c-0.058-0.221-0.149-0.416-0.274-0.583c-0.126-0.166-0.29-0.302-0.488-0.403c-0.198-0.104-0.438-0.155-0.721-0.155
		c-0.517,0-0.92,0.158-1.208,0.476c-0.288,0.318-0.461,0.766-0.521,1.34H127.121z M123.798,48.866c0,0.755,0.175,1.308,0.521,1.662
		c0.348,0.355,0.868,0.53,1.563,0.53c0.281,0,0.542-0.021,0.781-0.07c0.239-0.048,0.475-0.111,0.703-0.193
		c0.038,0.082,0.068,0.179,0.089,0.299c0.023,0.118,0.037,0.226,0.045,0.32c-0.216,0.098-0.468,0.17-0.754,0.224
		c-0.288,0.051-0.603,0.076-0.942,0.076c-0.487,0-0.906-0.071-1.257-0.216c-0.351-0.144-0.639-0.346-0.864-0.604
		c-0.227-0.259-0.392-0.565-0.5-0.926c-0.105-0.357-0.161-0.751-0.161-1.18c0-0.414,0.051-0.801,0.151-1.164
		c0.099-0.362,0.252-0.679,0.452-0.953c0.206-0.273,0.465-0.487,0.783-0.642c0.317-0.154,0.697-0.233,1.141-0.233
		c0.37,0,0.699,0.063,0.986,0.188c0.287,0.126,0.53,0.301,0.726,0.527c0.196,0.226,0.344,0.495,0.444,0.809
		c0.099,0.313,0.149,0.656,0.149,1.025c0,0.067-0.003,0.152-0.006,0.257c-0.004,0.102-0.009,0.19-0.017,0.264H123.798z
		 M120.283,44.545c-0.006-0.066-0.011-0.149-0.015-0.244s-0.005-0.177-0.005-0.244c0-0.059,0.001-0.133,0.005-0.221
		c0.004-0.09,0.009-0.163,0.015-0.222c0.068-0.007,0.15-0.014,0.244-0.017c0.098-0.005,0.178-0.006,0.245-0.006
		c0.059,0,0.132,0.001,0.22,0.006c0.092,0.003,0.164,0.01,0.223,0.017c0.008,0.059,0.012,0.132,0.017,0.222
		c0.002,0.088,0.008,0.162,0.008,0.221c0,0.067-0.006,0.149-0.008,0.244c-0.005,0.095-0.009,0.178-0.017,0.244
		c-0.059,0.007-0.131,0.015-0.223,0.017c-0.088,0.003-0.161,0.006-0.22,0.006c-0.067,0-0.147-0.003-0.245-0.006
		C120.434,44.56,120.352,44.552,120.283,44.545 M120.651,46.552h-0.709c-0.008-0.037-0.014-0.083-0.017-0.135
		c-0.003-0.051-0.006-0.107-0.006-0.165c0-0.06,0.003-0.119,0.006-0.18c0.003-0.058,0.009-0.105,0.017-0.143h1.44v5.651
		c-0.045,0.008-0.106,0.014-0.184,0.017c-0.077,0.005-0.141,0.006-0.184,0.006c-0.036,0-0.095-0.001-0.177-0.006
		c-0.081-0.003-0.144-0.009-0.188-0.017V46.552z M114.522,51.404l3.291-4.853h-2.959c-0.008-0.037-0.014-0.083-0.017-0.135
		c-0.003-0.051-0.005-0.107-0.005-0.165c0-0.06,0.002-0.119,0.005-0.18c0.003-0.058,0.009-0.105,0.017-0.143h4.078l0.045,0.143
		l-3.291,4.889h3.113c0.007,0.037,0.013,0.085,0.016,0.145c0.005,0.06,0.006,0.117,0.006,0.177c0,0.061-0.001,0.114-0.006,0.165
		c-0.003,0.053-0.009,0.096-0.016,0.134h-4.244L114.522,51.404z M112.583,47.848c0-0.486-0.113-0.844-0.343-1.069
		c-0.231-0.226-0.571-0.338-1.02-0.338c-0.295,0-0.565,0.019-0.81,0.061c-0.245,0.041-0.463,0.092-0.654,0.149
		c-0.036-0.065-0.068-0.164-0.093-0.289c-0.027-0.125-0.038-0.242-0.038-0.354c0.19-0.061,0.427-0.11,0.708-0.15
		s0.569-0.061,0.863-0.061c0.717,0,1.25,0.158,1.597,0.471c0.346,0.314,0.521,0.808,0.521,1.481v3.733
		c-0.26,0.05-0.574,0.102-0.942,0.155c-0.369,0.051-0.722,0.076-1.053,0.076c-0.688,0-1.229-0.136-1.624-0.411
		c-0.396-0.272-0.594-0.716-0.594-1.328c0-0.295,0.059-0.56,0.172-0.793c0.116-0.232,0.275-0.428,0.479-0.588
		c0.201-0.158,0.446-0.277,0.729-0.357c0.283-0.082,0.597-0.124,0.936-0.124c0.267,0,0.495,0.009,0.688,0.028
		c0.193,0.019,0.353,0.034,0.477,0.049V47.848z M112.583,48.834c-0.124-0.015-0.282-0.032-0.47-0.05
		c-0.189-0.02-0.37-0.028-0.538-0.028c-0.556,0-0.983,0.104-1.285,0.311s-0.454,0.502-0.454,0.886c0,0.244,0.046,0.439,0.139,0.588
		c0.092,0.146,0.211,0.26,0.359,0.338c0.147,0.078,0.31,0.129,0.488,0.153c0.178,0.026,0.354,0.041,0.529,0.041
		c0.23,0,0.444-0.014,0.645-0.033c0.199-0.022,0.396-0.054,0.587-0.091V48.834z M106.378,47.149v-3.712
		c0.045-0.009,0.104-0.014,0.183-0.017c0.079-0.005,0.139-0.007,0.183-0.007c0.038,0,0.095,0.002,0.177,0.007
		c0.081,0.003,0.145,0.008,0.188,0.017v3.201l0.82-0.576c0.03,0.111,0.046,0.247,0.046,0.41c0,0.073-0.006,0.137-0.011,0.184
		c-0.01,0.047-0.021,0.105-0.035,0.173l-0.82,0.573v2.871c0,0.192,0.022,0.342,0.066,0.448c0.045,0.108,0.101,0.186,0.167,0.234
		c0.067,0.046,0.142,0.075,0.221,0.089c0.083,0.01,0.157,0.014,0.224,0.014c0.08,0,0.164-0.004,0.255-0.014
		c0.088-0.014,0.16-0.024,0.221-0.04c0.038,0.089,0.062,0.185,0.077,0.288s0.024,0.2,0.033,0.288
		c-0.104,0.037-0.22,0.064-0.349,0.077c-0.129,0.017-0.251,0.023-0.36,0.023c-0.154,0-0.312-0.017-0.466-0.051
		c-0.153-0.033-0.293-0.096-0.415-0.188c-0.122-0.092-0.219-0.218-0.293-0.376c-0.075-0.159-0.111-0.368-0.111-0.626v-2.538
		l-0.654,0.455c-0.021-0.097-0.036-0.169-0.045-0.217c-0.007-0.049-0.01-0.106-0.01-0.172c0-0.043,0.004-0.106,0.018-0.184
		c0.01-0.077,0.023-0.139,0.037-0.184L106.378,47.149z M101.271,48.256c0-0.228-0.031-0.454-0.089-0.674
		c-0.06-0.221-0.151-0.416-0.278-0.583c-0.126-0.166-0.287-0.302-0.487-0.403c-0.2-0.104-0.439-0.155-0.72-0.155
		c-0.518,0-0.92,0.158-1.209,0.476c-0.288,0.318-0.46,0.766-0.521,1.34H101.271z M97.945,48.866c0,0.755,0.174,1.308,0.521,1.662
		c0.346,0.355,0.869,0.53,1.562,0.53c0.278,0,0.542-0.021,0.781-0.07c0.24-0.048,0.475-0.111,0.704-0.193
		c0.036,0.082,0.066,0.179,0.089,0.299c0.021,0.118,0.035,0.226,0.045,0.32c-0.216,0.098-0.466,0.17-0.756,0.224
		c-0.288,0.051-0.602,0.076-0.94,0.076c-0.488,0-0.907-0.071-1.258-0.216c-0.352-0.144-0.64-0.346-0.866-0.604
		c-0.223-0.259-0.391-0.565-0.497-0.926c-0.106-0.357-0.16-0.751-0.16-1.18c0-0.414,0.049-0.801,0.148-1.164
		c0.101-0.362,0.253-0.679,0.455-0.953c0.203-0.273,0.465-0.487,0.779-0.642c0.32-0.154,0.701-0.233,1.144-0.233
		c0.367,0,0.695,0.063,0.984,0.188c0.29,0.126,0.532,0.301,0.729,0.527c0.194,0.226,0.341,0.495,0.441,0.809
		c0.099,0.313,0.149,0.656,0.149,1.025c0,0.067-0.003,0.152-0.006,0.257c-0.003,0.102-0.009,0.19-0.016,0.264H97.945z
		 M94.387,43.438c0.046-0.009,0.106-0.014,0.185-0.017c0.076-0.005,0.139-0.007,0.183-0.007c0.036,0,0.097,0.002,0.178,0.007
		c0.08,0.003,0.143,0.008,0.188,0.017v6.836c0,0.192,0.021,0.342,0.066,0.448c0.044,0.108,0.1,0.186,0.166,0.234
		c0.066,0.046,0.139,0.075,0.221,0.089c0.079,0.01,0.154,0.014,0.222,0.014c0.081,0,0.167-0.004,0.255-0.014
		c0.089-0.014,0.164-0.024,0.222-0.04c0.036,0.089,0.063,0.185,0.077,0.288c0.016,0.104,0.026,0.2,0.033,0.288
		c-0.102,0.037-0.219,0.064-0.349,0.077c-0.129,0.017-0.25,0.023-0.358,0.023c-0.157,0-0.312-0.017-0.467-0.051
		c-0.156-0.033-0.293-0.096-0.416-0.188c-0.121-0.092-0.22-0.218-0.292-0.376c-0.074-0.159-0.113-0.368-0.113-0.626V43.438z
		 M87.849,43.438c0.047-0.009,0.106-0.014,0.186-0.017c0.076-0.005,0.137-0.007,0.182-0.007c0.036,0,0.095,0.002,0.177,0.007
		c0.081,0.003,0.145,0.008,0.189,0.017v3.279c0.155-0.237,0.379-0.449,0.669-0.637c0.292-0.188,0.671-0.283,1.136-0.283
		c0.348,0,0.666,0.054,0.952,0.162c0.29,0.105,0.536,0.273,0.738,0.502c0.202,0.229,0.361,0.52,0.478,0.866
		c0.113,0.347,0.171,0.764,0.171,1.251c0,0.982-0.271,1.752-0.811,2.306c-0.537,0.553-1.317,0.83-2.338,0.83
		c-0.331,0-0.652-0.031-0.962-0.095c-0.312-0.061-0.566-0.13-0.767-0.205V43.438z M88.582,50.906
		c0.169,0.058,0.349,0.101,0.536,0.125c0.188,0.026,0.39,0.041,0.604,0.041c0.296,0,0.578-0.049,0.849-0.143
		c0.271-0.099,0.506-0.246,0.71-0.444c0.203-0.201,0.365-0.453,0.488-0.761c0.12-0.305,0.181-0.674,0.181-1.102
		c0-0.673-0.127-1.201-0.382-1.586c-0.254-0.383-0.667-0.576-1.235-0.576c-0.176,0-0.369,0.031-0.577,0.091
		c-0.205,0.059-0.396,0.158-0.569,0.297c-0.175,0.143-0.318,0.327-0.434,0.562c-0.114,0.231-0.17,0.525-0.17,0.88V50.906z
		 M85.511,48.256c0-0.228-0.028-0.454-0.087-0.674c-0.06-0.221-0.152-0.416-0.277-0.583c-0.127-0.166-0.288-0.302-0.487-0.403
		c-0.2-0.104-0.439-0.155-0.721-0.155c-0.519,0-0.921,0.158-1.209,0.476c-0.288,0.318-0.461,0.766-0.519,1.34H85.511z
		 M82.187,48.866c0,0.755,0.175,1.308,0.522,1.662c0.346,0.355,0.867,0.53,1.562,0.53c0.28,0,0.542-0.021,0.781-0.07
		c0.24-0.048,0.475-0.111,0.703-0.193c0.038,0.082,0.067,0.179,0.09,0.299c0.021,0.118,0.037,0.226,0.044,0.32
		c-0.216,0.098-0.465,0.17-0.753,0.224c-0.29,0.051-0.603,0.076-0.943,0.076c-0.486,0-0.906-0.071-1.256-0.216
		c-0.353-0.144-0.639-0.346-0.866-0.604c-0.224-0.259-0.392-0.565-0.498-0.926c-0.107-0.357-0.161-0.751-0.161-1.18
		c0-0.414,0.052-0.801,0.15-1.164c0.101-0.362,0.251-0.679,0.455-0.953c0.203-0.273,0.464-0.487,0.78-0.642
		c0.317-0.154,0.698-0.233,1.142-0.233c0.368,0,0.697,0.063,0.984,0.188c0.29,0.126,0.531,0.301,0.728,0.527
		c0.195,0.226,0.343,0.495,0.443,0.809s0.148,0.656,0.148,1.025c0,0.067-0.001,0.152-0.005,0.257
		c-0.004,0.102-0.01,0.19-0.017,0.264H82.187z M73.057,43.614c0.044-0.007,0.115-0.014,0.209-0.017
		c0.097-0.005,0.185-0.006,0.268-0.006c0.08,0,0.168,0.001,0.265,0.006c0.096,0.003,0.17,0.01,0.223,0.017l2.227,5.309l2.205-5.309
		c0.043-0.007,0.116-0.014,0.217-0.017c0.099-0.005,0.186-0.006,0.26-0.006s0.159,0.001,0.254,0.006
		c0.096,0.003,0.171,0.01,0.223,0.017l0.388,7.967c-0.052,0.008-0.111,0.014-0.178,0.017c-0.067,0.005-0.132,0.006-0.198,0.006
		c-0.075,0-0.147-0.001-0.216-0.006c-0.071-0.003-0.127-0.009-0.172-0.017l-0.301-6.782l-2.193,5.131
		c-0.053,0.015-0.103,0.022-0.155,0.022h-0.156h-0.149c-0.048,0-0.098-0.008-0.149-0.022l-2.173-5.141l-0.321,6.792
		c-0.052,0.008-0.11,0.014-0.177,0.017c-0.067,0.005-0.133,0.006-0.2,0.006c-0.073,0-0.147-0.001-0.217-0.006
		c-0.07-0.003-0.127-0.009-0.171-0.017L73.057,43.614z"/>
	<path clip-path="url(#SVGID_2_)" fill="#808285" d="M18.227,21.738c4.463,0,8.272,1.964,11.954,3.861
		c3.368,1.736,6.549,3.375,9.952,3.375c2.7,0,5.366-1.064,8.139-3.251l-0.01-14.773H10.106l0.002,13.029
		C12.827,22.474,15.5,21.738,18.227,21.738 M10.106,49.095h38.148l0.013-13.041c-2.717,1.489-5.404,2.217-8.154,2.218h-0.001
		c-4.641,0-8.583-2.06-12.397-4.051c-3.359-1.755-6.534-3.414-9.809-3.414c-2.625,0-5.181,1.103-7.798,3.365L10.106,49.095z
		 M10.106,56.437h45.486V10.95h-4.693l0.013,15.4c0,0.393-0.174,0.765-0.476,1.016c-3.438,2.858-6.809,4.248-10.304,4.248
		c-4.044,0-7.662-1.865-11.162-3.669c-3.558-1.834-6.92-3.568-10.744-3.568c-2.863,0-5.703,1.001-8.689,3.061
		c-0.404,0.28-0.93,0.311-1.362,0.082c-0.434-0.228-0.706-0.679-0.706-1.168L7.467,9.629c0-0.35,0.139-0.685,0.386-0.932
		c0.249-0.249,0.584-0.387,0.934-0.387h39.471l-0.003-4.702H2.767v45.486h4.702V33.578c0-0.37,0.157-0.725,0.432-0.976
		c3.276-2.983,6.55-4.433,10.006-4.433c3.922,0,7.537,1.886,11.031,3.711c3.532,1.844,7.182,3.752,11.175,3.752h0.001
		c2.896-0.001,5.752-0.991,8.733-3.03c0.402-0.275,0.926-0.305,1.361-0.077c0.433,0.229,0.703,0.68,0.703,1.169l-0.02,16.722
		c-0.001,0.73-0.591,1.319-1.319,1.319H10.106V56.437z M56.913,59.076H8.787c-0.349,0-0.685-0.139-0.934-0.388
		c-0.247-0.249-0.386-0.582-0.386-0.934v-6.02h-6.02c-0.729,0-1.32-0.593-1.32-1.319V2.29c0-0.729,0.591-1.32,1.32-1.32h48.125
		c0.729,0,1.318,0.59,1.319,1.319l0.005,6.021h6.016c0.729,0,1.32,0.59,1.32,1.319v48.125
		C58.232,58.485,57.641,59.076,56.913,59.076"/>
</g>
</svg>
