<?xml version="1.0" encoding="UTF-8"?>
<svg width="158px" height="36px" viewBox="0 0 158 36" version="1.1" xmlns="http://www.w3.org/2000/svg" xmlns:xlink="http://www.w3.org/1999/xlink">
    <title>97D3BB3A-ED94-47A0-B3B9-49B4C8B0EF48</title>
    <g id="Revisione-Brand-Menu" stroke="none" stroke-width="1" fill="none" fill-rule="evenodd">
        <g id="1---home---brand-menu-on-top" transform="translate(-80.000000, -24.000000)" fill="#000000">
            <g id="logo/color" transform="translate(80.000000, 24.000000)">
                <path d="M54.0911651,23.2777366 L53.3918496,27.5649102 L43.7224677,27.5649102 C44.5159219,27.4170766 44.9193731,26.5703934 44.9193731,25.0517395 L44.9193731,15.8591791 C44.9193731,14.4614799 44.4621284,13.6819938 43.5341905,13.5207208 L53.1497788,13.5207208 L53.1497788,17.5256667 C52.8673629,16.114528 52.0335637,15.4156784 50.648381,15.4156784 L47.9183608,15.4156784 L47.9183608,19.5012608 L50.2987232,19.5012608 C51.2670063,19.5012608 51.8183896,19.1383965 51.9663218,18.3992287 L51.9663218,22.4848111 C51.8452864,21.772522 51.293903,21.4096578 50.3525167,21.4096578 L47.9318092,21.4096578 L47.9318092,25.6027555 L50.8501066,25.5758767 C51.6973543,25.5758767 52.369773,25.3877248 52.8673629,25.0248606 C53.3649528,24.6888752 53.7684041,24.0975409 54.0911651,23.2777366 M72.1523331,27.5649102 L67.0822956,27.5649102 C67.7681628,27.430516 68.1178205,26.6241511 68.1178205,25.1592548 L68.1178205,17.1628024 L63.3839924,27.8740167 L58.5425773,17.1762419 L58.5425773,25.0383 C58.5425773,26.5435146 58.9863737,27.3767584 59.8874148,27.5514708 L55.0056546,27.5514708 C55.8932474,27.3767584 56.3370437,26.5435146 56.3370437,25.0248606 L56.3370437,15.7651032 C56.3370437,14.4077222 55.879799,13.6551149 54.9518611,13.5072814 L60.1025888,13.5072814 L63.8277888,22.0009921 L67.5126436,13.5072814 L72.1523331,13.5072814 C71.3723273,13.6282361 70.9688761,14.3942828 70.9688761,15.8054215 L70.9688761,25.1458154 C70.9823244,26.6107117 71.3723273,27.4170766 72.1523331,27.5649102 M78.4730695,27.5649102 L73.2550999,27.5649102 C73.9947605,27.4170766 74.371315,26.6779087 74.371315,25.3742854 L74.371315,15.7785426 C74.371315,14.4614799 73.9947605,13.7088726 73.2550999,13.5207208 L78.4730695,13.5207208 C77.7334088,13.7088726 77.3568543,14.4614799 77.3568543,15.7785426 L77.3568543,25.3742854 C77.3568543,26.6779087 77.7199605,27.4170766 78.4730695,27.5649102 M89.9714304,22.9283118 L89.2586665,27.5649102 L79.6296298,27.5649102 C80.3154969,27.4170766 80.6651547,26.5300752 80.6651547,24.9307847 L80.6651547,15.886058 C80.6651547,14.4614799 80.2886002,13.6819938 79.5489395,13.5207208 L84.6996673,13.5207208 C83.9465582,13.6551149 83.5700037,14.4480405 83.5700037,15.886058 L83.5700037,25.6296343 L86.4883012,25.6296343 C87.3624456,25.6296343 88.0752095,25.4011643 88.6400412,24.9307847 C89.1241827,24.5276022 89.5814275,23.8556315 89.9714304,22.9283118 M104.146018,21.2349454 C103.366012,21.3693396 102.962561,22.0278709 102.962561,23.1702213 L102.962561,27.0273336 C101.64462,27.591789 99.9501248,27.8740167 97.8925234,27.8740167 C95.6600931,27.8740167 93.898356,27.1482883 92.5938636,25.6968314 C91.4104065,24.3932081 90.8321264,22.7670388 90.8321264,20.8452023 C90.8321264,18.7889717 91.5045452,17.0418477 92.8359343,15.5903908 C94.3018072,13.9911003 96.2921668,13.1847354 98.8070129,13.1847354 C100.447715,13.1847354 101.792552,13.4535237 102.828077,14.0045398 L102.828077,18.184198 C102.545661,17.2568784 102.007726,16.5311499 101.214272,16.0070127 C100.474611,15.5097543 99.6139155,15.2678448 98.6321841,15.2678448 C97.2470014,15.2678448 96.1307863,15.7651032 95.2835386,16.75962 C94.436291,17.7541367 94.0193913,18.990563 94.0193913,20.4823381 C94.0193913,21.9472344 94.4093942,23.1702213 95.2028484,24.1781774 C96.0366476,25.2130124 97.0990693,25.7371497 98.4170101,25.7371497 C99.0221869,25.7371497 99.5735703,25.6565132 100.07116,25.4818008 L100.07116,23.2239789 C100.07116,22.0547498 99.667709,21.382779 98.8473581,21.221506 L104.146018,21.2349454 L104.146018,21.2349454 Z M117.500255,27.5649102 L112.981601,27.5649102 L110.641583,23.2374183 C110.372616,22.74016 110.211235,22.4579322 110.157442,22.3772957 C109.901923,22.0413103 109.632955,21.8665979 109.363988,21.8665979 L108.960536,21.8665979 L108.960536,25.2264519 C108.960536,26.6510299 109.337091,27.430516 110.0902,27.5649102 L104.939472,27.5649102 C105.692581,27.430516 106.069136,26.6375905 106.069136,25.2264519 L106.069136,15.9398156 C106.069136,14.5017981 105.638788,13.6954332 104.79154,13.5207208 L110.950896,13.5207208 C112.524356,13.5207208 113.761606,13.9373427 114.676096,14.7840259 C115.523343,15.563512 115.940243,16.5042711 115.940243,17.633182 C115.940243,18.5739411 115.644379,19.3937454 115.05265,20.0925951 C114.407128,20.8720812 113.532984,21.3155819 112.430217,21.4365366 C112.779875,21.5978096 113.156429,22.0009921 113.532984,22.6595235 L115.415756,25.9790591 C115.899898,26.8257423 116.585765,27.3498795 117.500255,27.5649102 M112.887462,17.7138185 C112.887462,17.0821659 112.672288,16.5445893 112.268837,16.114528 C111.811592,15.6441485 111.192967,15.4156784 110.399512,15.4156784 L108.960536,15.4156784 L108.960536,20.1463527 L110.439858,20.1463527 C111.260208,20.1463527 111.892282,19.9044432 112.336078,19.4071849 C112.699185,18.9636841 112.887462,18.3992287 112.887462,17.7138185 M131.352081,20.3345045 C131.352081,22.4444928 130.693111,24.2184957 129.37517,25.6430737 C128.016884,27.1348489 126.241699,27.8740167 124.07651,27.8740167 C122.00546,27.8740167 120.337862,27.1751671 119.073715,25.7909073 C117.849912,24.4738446 117.244735,22.7939176 117.244735,20.7511264 C117.244735,18.6142593 117.930603,16.826817 119.288889,15.3753602 C120.660623,13.9239033 122.408912,13.1981748 124.560652,13.1981748 C126.618253,13.1981748 128.285852,13.883585 129.549999,15.2678448 C130.746904,16.5849076 131.352081,18.2782739 131.352081,20.3345045 M128.2993,20.89896 C128.2993,19.2862301 127.936194,17.955728 127.209982,16.9343324 C126.443424,15.8726185 125.381003,15.3350419 124.049613,15.3350419 C122.960295,15.3350419 122.059254,15.7382244 121.373387,16.5580287 C120.647174,17.4315908 120.284068,18.6142593 120.284068,20.1060345 C120.284068,21.8128403 120.660623,23.1702213 121.42718,24.1916168 C122.193738,25.2130124 123.229262,25.7237102 124.547203,25.7237102 C125.636522,25.7237102 126.537563,25.2936489 127.236878,24.4335263 C127.949642,23.5465249 128.2993,22.3772957 128.2993,20.89896 M145.634256,13.5207208 C144.827353,13.6416755 144.410454,14.4346011 144.410454,15.886058 L144.410454,22.5251293 C144.410454,26.1000139 142.581475,27.8874562 138.923516,27.8874562 C135.077281,27.8874562 133.167612,26.167211 133.167612,22.74016 L133.167612,15.886058 C133.167612,14.4480405 132.791057,13.6685544 132.051397,13.5207208 L137.309711,13.5207208 C136.583499,13.6551149 136.220393,14.4346011 136.220393,15.8188609 L136.220393,22.6057658 C136.220393,23.7615555 136.449015,24.5813599 136.90626,25.0786183 C137.363505,25.5758767 138.103166,25.8177861 139.111794,25.8177861 C140.106973,25.8177861 140.806289,25.5624372 141.236637,25.0383 C141.666985,24.5141628 141.882159,23.7077979 141.882159,22.6192052 L141.882159,15.886058 C141.882159,14.4480405 141.465259,13.6685544 140.644908,13.5207208 C140.644908,13.5207208 145.634256,13.5207208 145.634256,13.5207208 Z M157.684,17.794455 C157.684,19.1115177 157.240204,20.2001104 156.339162,21.0467936 C155.397776,21.9472344 154.133629,22.3907351 152.560169,22.3907351 C151.860853,22.3907351 151.22878,22.3100986 150.690845,22.1353862 L150.690845,25.2130124 C150.690845,26.6510299 151.121193,27.430516 151.96844,27.5514708 L146.737023,27.5514708 C147.476683,27.430516 147.853238,26.6510299 147.853238,25.2130124 L147.853238,15.9263762 C147.853238,14.4883587 147.436338,13.6819938 146.58909,13.5072814 L153.071207,13.5072814 C154.483287,13.5072814 155.626399,13.9373427 156.500543,14.7974653 C157.280549,15.6172696 157.684,16.6252258 157.684,17.794455 M154.590874,17.8885309 C154.590874,17.1628024 154.3757,16.5714682 153.931903,16.114528 C153.488107,15.6710273 152.88293,15.4425572 152.089476,15.4425572 L150.677396,15.4425572 L150.677396,20.2135498 C151.161538,20.3748228 151.686025,20.4420199 152.237408,20.4420199 C152.977069,20.4420199 153.555349,20.2135498 153.972248,19.7431703 C154.389148,19.2727907 154.590874,18.6545776 154.590874,17.8885309" id="type"></path>
                <path d="M16.8526139,0.390411662 C6.9277129,1.26397368 -0.441996764,9.82488148 0.378354129,19.5012608 C1.2121534,29.1776401 9.92670059,36.287091 19.8516016,35.4135289 C29.7765025,34.5265275 37.1462122,25.9656197 36.3258613,16.3026798 C35.492062,6.62630054 26.7775148,-0.496589773 16.8526139,0.390411662 M29.8706412,29.6345802 C23.9399077,35.6823173 13.9746616,35.319453 7.61358004,28.8282153 C1.25249852,22.3369775 0.902840765,12.1902186 6.8201259,6.14248158 C12.7508594,0.0947445169 22.7161055,0.45760874 29.077187,6.94884652 C35.4517169,13.4400843 35.8013747,23.6002826 29.8706412,29.6345802" id="circle"></path>
                <path d="M32.4258325,7.33858957 L32.4258325,35.480726 L4.27838297,35.480726 L4.27838297,7.33858957 L32.4258325,7.33858957 Z M29.7496058,8.83036471 L6.96805803,8.83036471 L6.96805803,34.123345 L29.7496058,34.123345 L29.7496058,8.83036471 Z" id="square"></path>
                <path d="M23.5768015,23.2777366 L22.877486,27.5649102 L13.2081042,27.5649102 C14.0015583,27.4170766 14.4050096,26.5703934 14.4050096,25.0517395 L14.4050096,15.8591791 C14.4050096,14.4614799 13.9477648,13.6819938 13.0198269,13.5207208 L22.6354152,13.5207208 L22.6354152,17.5256667 C22.3529994,16.114528 21.5192001,15.4156784 20.1340174,15.4156784 L17.4039973,15.4156784 L17.4039973,19.5012608 L19.7843597,19.5012608 C20.7526427,19.5012608 21.3040261,19.1383965 21.4519582,18.3992287 L21.4519582,22.4848111 C21.3309228,21.772522 20.7795395,21.4096578 19.8381532,21.4096578 L17.4174456,21.4096578 L17.4174456,25.6027555 L20.3357431,25.5758767 C21.1829907,25.5758767 21.8554095,25.3877248 22.3529994,25.0248606 C22.8371409,24.6888752 23.2540405,24.0975409 23.5768015,23.2777366" id="e"></path>
            </g>
        </g>
    </g>
</svg>