<?xml version="1.0" encoding="utf-8"?>
<!-- Generator: Adobe Illustrator 16.0.4, SVG Export Plug-In . SVG Version: 6.00 Build 0)  -->
<!DOCTYPE svg PUBLIC "-//W3C//DTD SVG 1.1//EN" "http://www.w3.org/Graphics/SVG/1.1/DTD/svg11.dtd">
<svg version="1.1" id="Layer_1" xmlns="http://www.w3.org/2000/svg" xmlns:xlink="http://www.w3.org/1999/xlink" x="0px" y="0px"
	 width="477.333px" height="163.333px" viewBox="0 0 477.333 163.333" enable-background="new 0 0 477.333 163.333"
	 xml:space="preserve">
<g>
	<path fill="#FFFFFF" d="M251.555,124.674c-3.712,0-5.822-2.169-5.822-5.385c0-3.228,2.187-5.519,5.715-5.519
		c1.056,0,1.975,0.361,2.76,0.556l-0.136,1.662c-0.77-0.288-1.553-0.605-2.427-0.605c-2.309,0-3.786,1.557-3.786,3.906
		c0,2.172,1.477,3.771,3.877,3.771c0.783,0,1.566-0.363,2.367-0.605l0.18,1.658C253.362,124.356,252.49,124.674,251.555,124.674
		L251.555,124.674z"/>
	<polygon fill="#FFFFFF" points="264.928,124.462 264.928,113.996 271.324,113.996 271.324,115.503 266.994,115.503 
		266.994,118.277 271.099,118.277 271.099,119.817 266.994,119.817 266.994,122.88 271.473,122.88 271.473,124.462 264.928,124.462 
			"/>
	<path fill="#FFFFFF" d="M287.744,117.029c0,0.992-0.74,1.581-2.096,1.581h-1.054v-3.15h0.905
		C287.02,115.46,287.744,115.928,287.744,117.029L287.744,117.029z M290.414,124.462l-1.448-3.636
		c-0.315-0.796-0.542-1.324-1.34-1.579c1.416-0.305,2.184-1.226,2.184-2.555c0-1.805-1.28-2.696-3.828-2.696h-3.424v10.466h2.037
		v-4.391h0.648c0.994,0,1.476,0.274,1.826,1.225l1.176,3.166H290.414L290.414,124.462z"/>
	<path fill="#FFFFFF" d="M306.535,120.45h-3.44l1.751-4.703L306.535,120.45L306.535,120.45z M310.167,124.462l-4.04-10.466h-2.489
		l-4.071,10.466h2.051l0.903-2.471h4.555l0.875,2.471H310.167L310.167,124.462z"/>
	<polygon fill="#FFFFFF" points="330.119,124.462 330.119,115.64 326.92,124.462 325.084,124.462 321.945,115.64 321.945,124.462 
		320.124,124.462 320.124,113.996 323.259,113.996 326.099,122.162 329.007,113.996 332.099,113.996 332.099,124.462 
		330.119,124.462 	"/>
	<polygon fill="#FFFFFF" points="343.454,124.462 343.454,113.996 345.519,113.996 345.519,124.462 343.454,124.462 	"/>
	<polygon fill="#FFFFFF" points="362.979,124.462 358.971,119.454 358.971,124.462 356.906,124.462 356.906,113.996 
		358.971,113.996 358.971,118.566 362.814,113.996 365.183,113.996 360.867,118.85 365.588,124.462 362.979,124.462 	"/>
	<path fill="#FFFFFF" d="M381.209,120.45h-3.438l1.752-4.703L381.209,120.45L381.209,120.45z M384.849,124.462l-4.041-10.466h-2.492
		l-4.072,10.466h2.052l0.904-2.471h4.555l0.875,2.471H384.849L384.849,124.462z"/>
	<path fill="#FFFFFF" d="M219.327,39.81c0.322,0.721,0.155,1.567-0.163,2.828c-0.485,1.927-1.264,4.401-1.66,6.479
		c-0.21,1.102-0.892,4.152-1.749,8.406c-0.632,3.119-1.105,6.891-1.812,10.999c-0.641,3.732-1.105,7.202-1.547,10.213
		c-0.661,4.505-1.11,7.984-1.375,9.796c-0.44,3.018-1,8.677-1.905,8.916c-1.521,0.405-3.531,0.548-4.693-0.598
		c-0.879-0.863-2.707-4.406-4.52-8.223c-1.575-3.321-3.14-6.854-4.063-9.035c-1.986-4.683-5.506-15.829-5.67-16.397
		c-0.235,0-0.335-0.104-0.335,0.155c-0.813,3.664-2.411,10.344-3.952,15.384c-1.242,4.047-4.271,14.349-5.534,16.33
		c-0.335,0.523-1.042,0.818-1.872,0.91c-1.123,0.128-2.471-0.109-3.424-0.626c-0.995-0.538-1.561-1.374-0.997-2.414
		c1.049-1.931,2.101-4.042,3.023-6.224c1.424-3.375,2.635-6.924,3.809-10.258c1.002-2.85,1.976-6.979,2.901-11.229
		c0.723-3.311,1.079-6.686,1.508-9.57c0.283-1.903,0.139-3.356,0.629-5.251c0.556-2.144,2.602-3.281,5.437-2.895
		c0.351,0.043,0.835,0.188,1.07,0.47c0.679,0.806,1.076,2.224,1.419,3.209c1.109,3.18,4.582,14.687,6.287,19.82
		c1.703,5.133,3.302,10.172,5.09,14.188c0.601,1.349,1.561,1.213,1.64-0.155c0.18-3.104,0.93-8.945,1.582-14.196
		c0.797-7.072,1.611-13.385,2.157-16.774c0.216-1.649,0.431-3.302,0.641-4.95c0.259-1.485,0.518-3.577,1.033-5.483
		c0.517-1.91,1.292-3.636,2.587-4.378C216.457,38.341,218.79,38.603,219.327,39.81L219.327,39.81z"/>
	<path fill="#FFFFFF" d="M339.857,53.014c7.414-7.794,18.781-9.899,21.519-10.103c2.737-0.203,5.885,0.143,7.564,2.793
		c0.384,0.606,0.616,1.442,0.252,2.159c-0.34,0.657-4.01,0.367-7.72,0.498c-3.663,0.133-9.084,1.537-13.446,4.812
		c-5.428,4.078-9.12,11.873-9.581,19.035c-0.438,6.754,0.512,15.936,9.321,19.17c5.316,1.956,8.553,0.198,9.698-2.767
		c0.854-2.211,0.076-4.606-1.522-6.861c-2.707-3.823-5.986-5.709-10.914-8.298c-2.285-1.199-1.294-5.204,0.937-5.505
		c0.909-0.122,4.676,0.202,8.753,0.279c1.843,0.034,3.749,0.021,5.479-0.107c6.869-0.516,11.09-1.222,14.223-1.48
		c0.831-0.069,2.129-0.281,2.319,0.086c0.089,0.173,0.136,0.386,0.146,0.622c0.074,1.642-1.634,4.467-2.705,4.798
		c-0.295,0.092-0.826,0.165-1.518,0.226c-3.917,0.342-13.03,0.256-14.039,0.411c-0.76,0.11-4.95,0.098-4.139,0.53
		c3.043,1.629,5.491,3.04,7.328,4.639c2.085,1.809,3.388,3.851,3.895,6.711c0.405,2.291-0.309,4.76-1.442,6.449
		c-1.791,2.637-5.771,6.522-14.572,6.144c-6.345-0.276-11.956-3.127-14.973-7.499c-2.368-3.433-4.071-7.892-4.328-12.258
		C329.94,69.73,332.44,60.807,339.857,53.014L339.857,53.014z"/>
	<path fill="#FFFFFF" d="M456.525,93.104c0.276-0.781,0.178-1.557-0.869-2.143c-1.37-0.762-2.423-1.741-3.239-2.824
		c-1.142-1.521-1.708-3.276-2.239-4.845c-0.624-1.848-1.004-4.847-1.266-7.979c-0.15-1.805-0.262-3.267-0.389-4.614
		c-0.253-2.713-2.106-4.245-4.95-4.538c-1.356-0.141-2.682,0.012-4.417,0.346c-2.234,0.423-4.575,1.341-7.226,3.01
		c-2.85,1.798-5.599,4.342-7.514,7.696c-1.526,2.671-2.468,5.464-2.427,7.948c0.045,2.509,1.094,4.693,3.569,6.107
		c2.354,1.345,6.688,0.462,9.519-0.918c2.723-1.333,5.691-3.303,7.415-5.74c0.201,0.721,0.394,1.329,0.594,1.857
		c0.516,1.367,1.078,2.226,1.951,3.287c2.134,2.591,5.216,4.445,9.723,4.588C455.748,94.375,456.275,93.815,456.525,93.104
		L456.525,93.104z M441.547,74.977c-0.069,1.254-0.401,2.519-0.967,3.749c-0.674,1.467-1.686,2.953-2.991,4.235
		c-1.521,1.491-4.244,3.481-6.096,3.041c-1.855-0.439-1.77-2.796-1.418-4.646c0.351-1.854,1.58-4.704,3.015-6.465
		c1.309-1.609,3.212-3.467,5.7-3.6C440.728,71.188,441.695,72.294,441.547,74.977L441.547,74.977z"/>
	<path fill="#FFFFFF" d="M289.097,69.348c-0.818-2.219-1.694-4.45-3.927-4.081c-1.951,0.325-2.341,2.435-2.543,3.591
		c-0.197,1.106-0.06,2.197,0.592,2.912c0.777,0.857,1.543,1.959,1.847,2.6c0.68,1.432,1.036,3.356,0.916,4.997
		c-0.045,0.627-0.157,2.689-1.762,3.85c-1.605,1.164-3.593,0.092-4.919-1.574c-1.104-1.389-1.939-3.145-2.37-4.191
		c-0.393-0.955-0.706-2.166-1.034-3.246c-0.272-0.892-0.554-1.694-0.898-2.188c-0.544-0.772-1.299-1.345-2.35-1.202
		c-2.185,0.284-2.986,1.913-2.786,3.244c0.201,1.336-0.375,4.481-1.459,6.485c-0.562,1.037-1.249,2.138-2.082,3.03
		c-1.157,1.24-2.723,2.498-4.362,1.771c-1.008-0.446-1.583-1.491-1.873-2.739c-0.208-0.903-0.268-1.914-0.232-2.876
		c0.083-2.283,0.471-4.044,1.18-6.22c0.73-2.242,1.667-3.812,2.133-5.268c0.301-0.932-0.325-1.731-1.016-2.361
		c-0.659-0.599-1.653-0.619-2.508-0.338c-1.063,0.338-2.044,1.058-2.916,1.765c-1.826,1.477-3.869,3.152-5.994,5.139
		c-1.521,1.425-2.833,2.819-4.39,3.969c-0.584,0.361-0.848,0.056-0.87-0.78c-0.022-0.856-0.156-1.736-0.41-2.616
		c-0.31-1.067-0.797-2.141-1.474-3.176c-0.965-1.474-2.704-2.861-4.924-3.676c-1.957-0.716-4.296-0.982-6.825-0.455
		c-2.915,0.61-5.341,1.664-7.418,3.221c-1.984,1.488-3.621,3.382-5.018,5.873c-1.127,2.012-1.819,4.441-1.83,6.969
		c-0.016,3.55,1.828,7.146,5.059,8.565c1.9,0.831,3.735,1.218,5.466,1.259c1.284,0.031,2.513-0.128,3.672-0.424
		c3.858-0.996,5.673-2.382,7.696-3.792c2.027-1.411,3.463-2.848,5.806-5.273c1.42-1.233,2.917-2.584,4.426-3.811
		c1.283-1.045,2.575-2.024,3.834-2.829c-0.401,2.072-1.163,6.44-0.67,9.868c0.326,2.272,0.837,4.192,2.405,5.675
		c1.567,1.483,3.771,1.442,5.775,0.722c3.153-1.136,5.715-3.023,7.613-4.899c1.293-1.275,2.317-2.366,2.868-3.058
		c0.659-0.832,0.921-0.439,1.223,0.1c0.589,0.754,0.983,2.219,2.863,4.282c1.729,1.905,3.441,2.667,5.087,2.627
		c1.963-0.048,3.842-1.235,5.562-2.977c2.994-3.037,4.086-7.793,4.195-11.288C290.539,73.886,289.898,71.529,289.097,69.348
		L289.097,69.348z M234.315,70.1c1.94,0.123,3.516,1.067,4.511,2.53c0.985,1.445,1.4,3.101,1.057,5.176
		c-0.324,1.954-1.356,3.394-2.583,4.479c-1.39,1.229-3.297,2.114-5.29,2.337c-2.13,0.233-3.684-0.037-4.967-1.114
		c-1.285-1.074-1.854-2.888-1.758-4.896c0.089-1.889,1.357-4.185,2.608-5.573c1.128-1.249,2.544-2.268,4.374-2.735
		C232.985,70.123,233.67,70.061,234.315,70.1L234.315,70.1z"/>
	<path fill="#FFFFFF" d="M326.842,92.14c-0.319-0.431-0.725-1.091-1.37-2.288c-0.509-0.935-0.923-2.122-1.262-3.47
		c-0.462-1.831-0.782-3.955-1-6.145c-0.213-2.138-0.376-4.352-0.631-6.339c-0.175-1.356-0.393-2.603-0.701-3.649
		c-0.411-1.401-0.961-2.692-2.001-3.584c-1.041-0.895-2.571-1.393-4.945-1.202c-4.028,0.32-8.802,2.737-12.859,6.045
		c-4.219,3.438-7.67,7.838-8.718,11.841c-0.733,2.809-0.113,5.036,1.351,6.439c1.156,1.108,2.839,1.706,4.795,1.681
		c0.762-0.01,1.563-0.114,2.394-0.318c3.22-0.799,5.181-1.996,6.989-3.238c2.803-1.917,4.802-3.744,6.763-6.903
		c-0.016,0.515-0.012,1.024,0.008,1.527c0.125,2.907,0.865,5.583,2.087,7.513c1.436,2.268,3.638,3.88,6.239,4.225
		c0.829,0.108,2.236,0.528,2.763-0.325C327.354,92.959,327.262,92.699,326.842,92.14L326.842,92.14z M314.32,74.607
		c-0.567,1.942-2.251,4.001-3.704,5.639c-2.11,2.378-6.917,5.505-9.103,4.127c-2.188-1.371,0.155-5.762,2.802-8.504
		c2.65-2.742,5.802-5.833,8.528-5.316C314.504,70.865,314.968,72.38,314.32,74.607L314.32,74.607z"/>
	<path fill="#FFFFFF" d="M414.591,81.256c-0.315-3.954,0.399-8.847,0.756-12.527c0.653-6.923,1.617-14.286,1.714-19.947
		c0.056-3.141,0.036-7.17-1.21-9.761c-0.415-0.863-2.147-0.791-2.776,0.411c-1.653,3.157-2.159,5.996-2.728,8.401
		c-0.563,2.375-0.869,4.469-1.212,6.907c-0.401,2.848-0.662,5.58-0.797,7.821c-0.156,2.602-0.196,5.179-0.183,7.617
		c0.019,2.728,0.106,5.206,0.177,7.42c0,1.08-0.278,2.851-0.718,3.965c-0.634,1.612-2.182,3.27-3.391,4.527
		c-1.032,1.083-2.164,1.729-2.883,1.927c-1.003,0.277-1.716-0.316-2.224-1.138c-0.548-0.885-0.865-2.035-1.054-2.652
		c-0.645-2.072-1.712-6.385-2.483-9.263c-0.176-0.664-0.406-1.192-0.565-1.544c-0.254-0.565-0.716-1.11-1.341-1.583
		c-1.515-1.147-3.99-1.858-6.77-1.365c-2.458,0.434-5.298,1.743-7.886,3.659c-2.587,1.917-4.918,4.445-6.354,7.316
		c-0.886,1.771-1.368,3.721-1.332,5.506c0.048,2.257,0.923,4.255,2.856,5.324c1.215,0.671,2.477,0.948,3.729,0.945
		c3.754,0,7.401-2.517,9.337-4.462c1.859-1.873,3.067-3.929,3.941-5.995c0.107,0.573,0.243,1.113,0.509,2
		c0.686,2.282,1.616,4.906,2.542,6.463c0.383,0.639,1.178,1.931,2.44,2.75c0.989,0.643,2.231,1.007,3.667,0.598
		c1.542-0.439,2.808-1.576,3.929-2.786c1.123-1.212,2.343-2.448,3.059-3.235c0.498-0.547,0.867-0.852,1.231-0.861
		c0.364-0.009,0.724,0.277,1.205,0.901c0.635,0.833,1.768,2.119,3.318,3.171c1.123,0.762,2.493,1.372,4.159,1.512
		c0.963,0.078,2.328-1.235,1.527-2.126C415.77,87.803,414.81,84.032,414.591,81.256L414.591,81.256z M386.963,78.852
		c-0.305,1.524-1.002,3.182-1.611,4.188c-0.642,1.062-1.456,2.139-2.341,3.002c-1.475,1.432-3.146,2.263-4.535,1.423
		c-1.128-0.681-1.004-2.418-0.318-4.216c0.538-1.418,1.379-2.873,2.115-3.889c0.77-1.064,1.792-2.198,2.766-3.001
		c1.136-0.939,2.306-1.432,3.269-0.859C387.184,76.024,387.257,77.373,386.963,78.852L386.963,78.852z"/>
	<polygon fill="#FFFFFF" points="120.813,55.78 120.813,68.986 133.579,81.749 120.813,94.513 120.813,107.727 146.786,81.758 
		120.813,55.78 	"/>
	<polygon fill="#FFFFFF" points="86.784,34.968 99.56,47.729 112.757,47.729 86.777,21.754 60.798,47.729 74.029,47.729 
		86.784,34.968 	"/>
	<polygon fill="#FFFFFF" points="40,81.749 52.763,68.996 52.756,55.772 26.779,81.749 52.756,107.727 52.763,94.504 40,81.749 	"/>
	<polygon fill="#FFFFFF" points="99.549,115.775 86.784,128.531 74.029,115.775 60.807,115.775 86.784,141.761 112.767,115.775 
		99.549,115.775 	"/>
	<polygon fill="#FFFFFF" points="78.401,94.463 65.943,72.018 65.942,94.463 62.54,94.463 62.54,67.941 67.202,67.941 79.544,89.92 
		79.547,67.941 82.947,67.941 82.947,94.463 78.401,94.463 	"/>
	<path fill="#FFFFFF" d="M101.364,82.807h5.543v8.064c-1.3,0.496-2.674,0.766-4.205,0.766c-6.458,0-10.587-4.091-10.587-10.319
		c0-6.382,4.167-10.585,10.549-10.585c2.68,0,5.062,0.532,7.042,1.514v-3.297c-2.162-0.718-4.624-1.123-7.234-1.123
		c-8.75,0-14.25,5.274-14.25,13.415c0,8.139,5.386,13.336,14.174,13.336c2.941,0,5.657-0.46,8.102-1.375v-13.3h-9.134V82.807
		L101.364,82.807z"/>
</g>
</svg>
