<?xml version="1.0" encoding="utf-8"?>
<!-- Generator: Adobe Illustrator 24.0.2, SVG Export Plug-In . SVG Version: 6.00 Build 0)  -->
<svg version="1.1" id="Capa_1" xmlns="http://www.w3.org/2000/svg" xmlns:xlink="http://www.w3.org/1999/xlink" x="0px" y="0px"
	 viewBox="0 0 261.19 81.62" style="enable-background:new 0 0 261.19 81.62;" xml:space="preserve">
<style type="text/css">
	.st0{fill:#204A95;}
</style>
<g>
	<path class="st0" d="M231.03,48.59l3.46,1.2c5.28,1.52,8.92,4.7,8.92,8.39c0,5.16-7.12,9.33-15.89,9.33
		c-5.94,0-11.12-1.91-13.79-4.75c-0.15-0.08-1.94-1.87-3.73-4.64c-0.77-0.99-2.28-1.23-3.37-0.54l-8.6,5.45
		c-1.1,0.69-1.36,2.06-0.59,3.05c2,3.33,4.6,5.78,4.6,5.78c5.88,5.31,15.12,8.68,25.46,8.68c17.75,0,32.13-10.08,32.13-22.51
		c0-8.59-6.88-16.06-16.98-19.85l-11.59-4.19L231.03,48.59L231.03,48.59z"/>
	<path class="st0" d="M226.45,32.37l-3.73-1.34c-4.05-1.5-6.74-4.16-6.74-7.18c0-4.69,5.24-8.49,13.22-8.49
		c4.83,0,7.86,1.42,10.54,3.56c-0.05,0,3.53,3.24,3.53,3.24c0.95,0.86,2.48,0.86,3.42,0l7.43-6.72c0.95-0.86,0.95-2.33,0.01-3.18
		c-5.45-6.36-13.91-10.6-24.97-10.6c-16.93,0-29.44,9.94-29.44,22.19c0,8.04,5.92,15.09,14.77,18.98l11.93,4.15L226.45,32.37
		L226.45,32.37z"/>
	<path class="st0" d="M3.29,2.97h57.03c1.19,0,2.16,0.97,2.16,2.16v9.49c0,1.19-0.97,2.16-2.16,2.16H3.29
		c-1.19,0-2.16-0.97-2.16-2.16V5.13C1.13,3.94,2.1,2.97,3.29,2.97L3.29,2.97z"/>
	<path class="st0" d="M40.07,21.35v54.37c0,1.19-0.97,2.16-2.16,2.16H25.77c-1.19,0-2.16-0.97-2.16-2.16V21.35
		C23.65,21.39,40.1,21.38,40.07,21.35L40.07,21.35z"/>
	<path class="st0" d="M70.06,3h12.22c1.19,0,2.16,0.97,2.16,2.16v70.59c0,1.19-0.97,2.16-2.16,2.16H70.06
		c-1.19,0-2.16-0.97-2.16-2.16V5.16C67.9,3.97,68.87,3,70.06,3L70.06,3z"/>
	<path class="st0" d="M95.69,55.02h14.49c1.19,0,2.17,0.01,2.16,0l11.65,20.71c0.67,1.19,0.25,2.16-0.95,2.16h-14.49
		c-1.19,0-2.71-0.97-3.38-2.16L93.52,55.02C93.52,55.03,94.49,55.02,95.69,55.02L95.69,55.02z"/>
	<path class="st0" d="M95.95,16.81l-7.03-0.01V2.98L94.25,3l1.13-0.01h6.19c13.6,0.22,24.42,10.08,24.42,22.59
		c0,13.8-4.81,19.77-15.1,24.56l-1.16,0.24h-8.12l-8.97,0.03h-3.7c0,0.03-0.02-0.97-0.02-2.16v-10.3c0.04,0.04,4.02,0.01,4.02,0.01
		l0.44-0.01h8.95c0.24,0,0.36,0,0.61,0c6.07-0.45,9.59-4.43,9.59-11.13c0-3.31-1.64-9.97-10.82-9.97l-4.42-0.02L95.95,16.81
		L95.95,16.81z"/>
	<path class="st0" d="M192.65,17.63v0.98c0,1.13,0.04,2.15-0.95,1.71c-1.17-0.52-5.59-2.03-10.44-2.03c-6.08,0-12.1,3.98-18.64,3.98
		h-0.27h-0.04h-0.26c-6.54,0-12.56-3.98-18.64-3.98c-4.84,0-9.27,1.51-10.44,2.03c-0.99,0.44-0.95-0.59-0.95-1.71v-0.98v-0.41V4.93
		c0,0-0.23-0.94,0.95-1.43s5.59-2.03,10.44-2.03c6.08,0,12.1,3.98,18.64,3.98h0.57c6.54,0,12.56-3.98,18.64-3.98
		c4.84,0,9.26,1.54,10.44,2.03c1.18,0.49,0.95,1.43,0.95,1.43v11.6L192.65,17.63L192.65,17.63z"/>
	<path class="st0" d="M192.65,46.28v0.98c0,1.13,0.04,2.15-0.95,1.71c-1.17-0.52-5.59-2.03-10.44-2.03c-6.08,0-12.1,3.98-18.64,3.98
		h-0.27h-0.04h-0.26c-6.54,0-12.56-3.98-18.64-3.98c-4.84,0-9.27,1.51-10.44,2.03c-0.99,0.44-0.95-0.59-0.95-1.71v-0.98v-0.41V33.58
		c0,0-0.23-0.94,0.95-1.43s5.59-2.03,10.44-2.03c6.08,0,12.1,3.98,18.64,3.98h0.57c6.54,0,12.56-3.98,18.64-3.98
		c4.84,0,9.26,1.54,10.44,2.03c1.18,0.49,0.95,1.43,0.95,1.43v11.59L192.65,46.28L192.65,46.28z"/>
	<path class="st0" d="M192.65,74.93v0.98c0,1.13,0.04,2.15-0.95,1.71c-1.17-0.52-5.59-2.03-10.44-2.03c-6.08,0-12.1,3.98-18.64,3.98
		h-0.27h-0.04h-0.26c-6.54,0-12.56-3.98-18.64-3.98c-4.84,0-9.27,1.51-10.44,2.03c-0.99,0.44-0.95-0.59-0.95-1.71v-0.98v-0.41V62.23
		c0,0-0.23-0.94,0.95-1.43s5.59-2.03,10.44-2.03c6.08,0,12.1,3.98,18.64,3.98h0.57c6.54,0,12.56-3.98,18.64-3.98
		c4.84,0,9.26,1.54,10.44,2.03c1.18,0.49,0.95,1.43,0.95,1.43v11.6L192.65,74.93L192.65,74.93z"/>
</g>
</svg>
