<?xml version="1.0" encoding="utf-8"?>
<!-- Generator: Adobe Illustrator 16.0.0, SVG Export Plug-In . SVG Version: 6.00 Build 0)  -->
<!DOCTYPE svg PUBLIC "-//W3C//DTD SVG 1.1//EN" "http://www.w3.org/Graphics/SVG/1.1/DTD/svg11.dtd">
<svg version="1.1" id="Warstwa_1" xmlns="http://www.w3.org/2000/svg" xmlns:xlink="http://www.w3.org/1999/xlink" x="0px" y="0px"
	 width="5893.938px" height="2313.327px" viewBox="0 0 5893.938 2313.327" enable-background="new 0 0 5893.938 2313.327"
	 xml:space="preserve">
<g>
	<g>
		<path fill-rule="evenodd" clip-rule="evenodd" fill="#40464E" d="M2963.375,1001.115c245.246,0,444.058,198.81,444.058,444.056
			c0,245.248-198.812,444.058-444.058,444.058c-20.381,0-40.432-1.398-60.082-4.061v-313.096
			c18.216,8.638,38.583,13.477,60.082,13.477c77.527,0,140.379-62.849,140.379-140.378c0-77.53-62.852-140.379-140.379-140.379
			c-77.509,0-140.347,62.817-140.377,140.32v0.138v421.309v396.973h-303.672v-817.374c-0.002-0.33-0.011-0.656-0.011-0.987
			C2519.315,1199.924,2718.128,1001.115,2963.375,1001.115z"/>
		<path fill-rule="evenodd" clip-rule="evenodd" fill="#40464E" d="M1953.763,1445.112v0.059
			c4.157,245.212-265.466,444.058-444.036,444.058c-178.571,0-214.114-41.402-292.204-109.705
			c-78.091,68.302-180.307,109.705-292.203,109.705c-244.861,0-443.416-198.187-444.045-442.896h-0.015V1002.94H784.94v442.172
			h0.001l-0.001,0.059c0,77.529,62.85,140.378,140.379,140.378c77.146,0,139.75-62.234,140.364-139.238
			c-0.001-0.38-0.015-0.76-0.015-1.14l0.001-0.059h0.027h0.036V1002.94h303.598v442.172h0.019h0.027l0.001,0.059
			c0,0.38-0.013,0.759-0.016,1.14c0.615,77.004,63.219,139.238,140.365,139.238c77.53,0,140.379-62.849,140.379-140.378
			l-0.001-0.059h0.001V1002.94h303.657V1445.112z"/>
		<path fill-rule="evenodd" clip-rule="evenodd" fill="#40464E" d="M2084.234,1002.94h303.67v834.93
			c-44.156-27.493-96.282-43.396-152.13-43.396c-55.601,0-107.51,15.76-151.54,43.029V1002.94L2084.234,1002.94z M2235.774,1873.08
			c115.772,0,209.624,93.853,209.624,209.624s-93.852,209.623-209.624,209.623c-115.771,0-209.624-93.852-209.624-209.623
			S2120.004,1873.08,2235.774,1873.08z"/>
		<path fill-rule="evenodd" clip-rule="evenodd" fill="#40464E" d="M3939.11,1001.115c209.333,0,384.837,144.846,431.746,339.782
			l1.823,9.229l-124.158,185.894h-309.984l110.301-178.41c-13.611-38.893-65.316-52.817-109.728-52.817
			c-77.531,0-140.38,62.849-140.38,140.379c0,77.529,62.849,140.378,140.38,140.378v-0.003h0.158h419.052h2.18
			c-0.705,2.123-1.441,4.232-2.18,6.339v297.344h-419.21c-245.247,0-444.06-198.81-444.06-444.058
			C3495.051,1199.924,3693.863,1001.115,3939.11,1001.115z"/>
		<path fill-rule="evenodd" clip-rule="evenodd" fill="#40464E" d="M4897.068,1001.115c0.371,0,0.736,0.01,1.104,0.012v303.679
			c-0.365-0.003-0.733-0.014-1.104-0.014c-77.313,0-140.029,62.502-140.375,139.735v444.67h-303.68v-445.027
			C4453.553,1199.383,4652.154,1001.115,4897.068,1001.115z"/>
		<path fill-rule="evenodd" clip-rule="evenodd" fill="#40464E" d="M5130.949,539.284c127.563,0,230.971,103.407,230.971,230.967
			v55.807v350.878v84.648v717.167c0.401,31.021,0,37.544,0,55.805c0,127.56-103.408,230.969-230.971,230.969l-52.958,0.001H2908.553
			v-244.538h2166.979c24.191-0.002,43.804-19.614,43.804-43.807v-0.001v-715.596v-84.648V827.627l0,0
			c0-24.193-19.612-43.806-43.804-43.809c-1589.878,0-3179.758,0-4769.638,0c-24.191,0.003-43.804,19.615-43.804,43.809l0,0v349.308
			v84.648v715.596v0.001c0,24.193,19.612,43.805,43.804,43.807c551.169,0,1102.339,0,1653.509,0
			c-3.693,18.236-5.64,37.107-5.64,56.433c0,71.289,26.392,136.413,69.928,186.15c-572.763,0-1145.654,1.954-1720.258,1.954
			l-52.96-0.001c-127.56,0-230.968-103.409-230.968-230.969c0-18.261-0.403-24.784,0-55.805v-717.167v-84.648V826.057V770.25
			c0-127.56,103.408-230.967,230.968-230.967H5130.949z"/>
	</g>
	<g>
		<path fill-rule="evenodd" clip-rule="evenodd" fill="#40464E" d="M5680.051,58.184c103.746,0,187.851,84.107,187.851,187.853
			c0,103.747-84.104,187.85-187.851,187.85c-103.75,0-187.854-84.103-187.854-187.85
			C5492.197,142.292,5576.301,58.184,5680.051,58.184L5680.051,58.184z M5680.051,101.524c79.813,0,144.512,64.702,144.512,144.513
			s-64.699,144.512-144.512,144.512c-79.811,0-144.514-64.701-144.514-144.512S5600.24,101.524,5680.051,101.524z"/>
		<path fill="#40464E" d="M5649.33,232.674h44.393c9.612,0,16.67-1.957,21.22-5.868c4.507-3.911,6.764-10.036,6.764-18.454
			c0-7.951-2.212-13.991-6.593-18.115c-4.379-4.124-10.97-6.167-19.646-6.167h-46.138V232.674L5649.33,232.674z M5611.571,335.921
			V152.434h88.999c19.985,0,34.828,4.295,44.438,12.842c9.655,8.548,14.457,21.644,14.457,39.248
			c0,11.185-2.339,20.539-7.059,28.024c-4.68,7.483-11.441,12.585-20.238,15.309c7.994,2.848,13.646,7.143,17.047,12.97
			c3.361,5.823,5.275,14.882,5.787,27.172l0.764,21.646c0,0.168,0,0.423,0,0.765c0.213,10.926,2.596,17.603,7.101,19.898v5.614
			h-41.419c-1.314-2.594-2.292-5.74-3.018-9.524c-0.68-3.786-1.148-8.292-1.275-13.523l-0.511-19.306
			c-0.423-11.354-2.552-19.05-6.421-23.006c-3.867-3.997-10.842-5.995-20.879-5.995h-40.014v71.354H5611.571z"/>
	</g>
</g>
</svg>
